<svg id="mail_edit_filled_icon_199793_1_" xmlns="http://www.w3.org/2000/svg" width="21" height="19.764" viewBox="0 0 21 19.764">
  <path id="mail_edit_filled_icon_199793_1_2" d="M21.763,7.167v3.409a3.545,3.545,0,0,0-3.58.873l-5.965,5.965a3.948,3.948,0,0,0-.986,1.644H5.088A3.088,3.088,0,0,1,2,15.97v-8.8l9.568,5.63a.617.617,0,0,0,.626,0ZM18.675,3a3.088,3.088,0,0,1,3.069,2.746l-9.863,5.8-9.863-5.8A3.088,3.088,0,0,1,5.088,3ZM13.092,18.288l5.965-5.965a2.31,2.31,0,0,1,3.267,3.267l-5.965,5.965a2.714,2.714,0,0,1-1.261.714l-1.85.463A1.1,1.1,0,0,1,11.915,21.4l.462-1.85A2.714,2.714,0,0,1,13.092,18.288Z" transform="translate(-2 -3.001)" fill="#59aff2"/>
</svg>
