<svg id="Group" xmlns="http://www.w3.org/2000/svg" width="21.928" height="19.736" viewBox="0 0 21.928 19.736">
    <path id="Fill-1" d="M21.928,13.629a5.533,5.533,0,0,1-5.515,5.548H5.537A5.533,5.533,0,0,1,0,13.651V13.64S.007,8.787.015,6.347A.546.546,0,0,1,.9,5.917C3.506,7.984,8.165,11.752,8.223,11.8A4.459,4.459,0,0,0,11,12.777a4.4,4.4,0,0,0,2.774-.988c.058-.038,4.613-3.694,7.257-5.794a.548.548,0,0,1,.889.428c.011,2.422.011,7.207.011,7.207" transform="translate(0 0.559)" fill="#ffffff" opacity="0.4"/>
    <path id="Fill-4" d="M21.3,2.932A5.52,5.52,0,0,0,16.43,0H5.488A5.52,5.52,0,0,0,.614,2.932.947.947,0,0,0,.856,4.114L9,10.625a3.1,3.1,0,0,0,1.952.69h.022a3.1,3.1,0,0,0,1.952-.69l8.141-6.511A.947.947,0,0,0,21.3,2.932" transform="translate(0.048)" fill="#ffffff"/>
</svg>
