<svg id="rocket_filled_icon_201939" xmlns="http://www.w3.org/2000/svg" width="19.615" height="19.616" viewBox="0 0 19.615 19.616">
  <path id="Контур_7" d="M13.057,7.431a2.5,2.5,0,1,1,0,3.536A2.5,2.5,0,0,1,13.057,7.431Zm2.475,1.061a1,1,0,1,0,0,1.414A1,1,0,0,0,15.532,8.492Z" transform="translate(-2.404 -2.003)" fill="#fba524"/>
  <path id="Контур_8" d="M19.7,2.512a2.75,2.75,0,0,1,1.811,1.81l.206.664a6.75,6.75,0,0,1-1.673,6.776l-1,1a3.5,3.5,0,0,1-.328,4.567l-1.242,1.243a.75.75,0,0,1-1.061,0l-1.59-1.59-.177.177a1.75,1.75,0,0,1-2.475,0l-.487-.487-.811,1.39a.75.75,0,0,1-1.178.152L5.806,14.325a.75.75,0,0,1,.145-1.174l1.384-.829-.471-.471a1.75,1.75,0,0,1,0-2.475l.18-.18L5.454,7.606a.75.75,0,0,1,0-1.061L6.7,5.3a3.5,3.5,0,0,1,4.569-.327l1-1a6.75,6.75,0,0,1,6.774-1.674Zm.379,2.255a1.25,1.25,0,0,0-.823-.823l-.662-.205a5.25,5.25,0,0,0-5.268,1.3l-5.4,5.4a.25.25,0,0,0,0,.353L13.233,16.1a.25.25,0,0,0,.354,0l5.4-5.4a5.25,5.25,0,0,0,1.3-5.27Z" transform="translate(-2.404 -2.003)" fill="#fba524"/>
  <path id="Контур_9" d="M6.69,18.395a.75.75,0,0,0-1.061-1.061L3.154,19.809A.75.75,0,0,0,4.215,20.87Z" transform="translate(-2.404 -2.003)" fill="#fba524"/>
  <path id="Контур_10" d="M4.745,15.389a.75.75,0,0,1,0,1.061L3.685,17.511A.75.75,0,1,1,2.624,16.45l1.061-1.061A.75.75,0,0,1,4.745,15.389Z" transform="translate(-2.404 -2.003)" fill="#fba524"/>
  <path id="Контур_11" d="M8.632,20.341a.75.75,0,1,0-1.061-1.061L6.513,20.339A.75.75,0,1,0,7.574,21.4Z" transform="translate(-2.404 -2.003)" fill="#fba524"/>
</svg>
