<svg id="arrow_trending_lines_filled_icon_202563" xmlns="http://www.w3.org/2000/svg" width="19" height="20" viewBox="0 0 19 20">
  <path id="arrow_trending_lines_filled_icon_202563-2" d="M17,4a1,1,0,0,1,0-2h4a1,1,0,0,1,1,1V7a1,1,0,0,1-2,0V5.414l-5.793,5.793a1,1,0,0,1-1.414,0L10,8.414,4.707,13.707a1,1,0,1,1-1.414-1.414l6-6a1,1,0,0,1,1.414,0L13.5,9.086,18.586,4ZM5,18v3a1,1,0,0,1-2,0V18a1,1,0,0,1,2,0Zm5-4a1,1,0,0,0-2,0v7a1,1,0,0,0,2,0Zm4,1a1,1,0,0,1,1,1v5a1,1,0,0,1-2,0V16A1,1,0,0,1,14,15Zm6-4a1,1,0,0,0-2,0V21a1,1,0,0,0,2,0Z" transform="translate(-3 -2)" fill="#fba524"/>
</svg>
